# xmcd
#
# Track frame offsets:
# 150
# 13547
# 26659
# 37864
# 51564
# 65321
# 79778
# 91023
# 103670
# 117221
# 129884
#
# Disc length: 1887 seconds
#
#
# Revision: 0
# Processed by: cddbd v1.5.2PL0 Copyright (c) Steve Scherf et al.
# Submitted via: FreeRIP 2.60 
#
DISCID=7e075d0b
DTITLE=8 Ball Aiken - The Tamworth Tapes
DYEAR=2010
DGENRE=Country
TTITLE0=Rogue Pony
TTITLE1=Hit The Road
TTITLE2=Deep North Town
TTITLE3=We Are The Circus
TTITLE4=Nobody Looks Ugly After Midnight
TTITLE5=Run With The Pack
TTITLE6=Pittbull Is Off The Chain
TTITLE7=Good Time Music
TTITLE8=Chocolate, Jack Daniels And LSD
TTITLE9=Honk Stomp Spooky Swamp Rock Country Blues
TTITLE10=Wherever I Lay My Hat
EXTD=
EXTT0=
EXTT1=
EXTT2=
EXTT3=
EXTT4=
EXTT5=
EXTT6=
EXTT7=
EXTT8=
EXTT9=
EXTT10=
PLAYORDER=
